<svg version="1.1" xmlns="http://www.w3.org/2000/svg" xmlns:xlink="http://www.w3.org/1999/xlink" width="105.44781" height="63.27914" viewBox="0,0,105.44781,63.27914"><g transform="translate(-187.2761,-148.36043)"><g stroke="none" stroke-miterlimit="10"><path d="M208.06792,208.35905c-3.74119,0 -5.69554,-1.60536 -6.68668,-2.95945c-2.07999,-2.83381 -1.32617,-6.23997 -0.92134,-7.58009c0.20939,-0.68403 0.44671,-1.56348 0.71194,-2.5965c1.6612,-6.37957 4.76025,-18.2732 13.73631,-23.87102c6.04453,-3.76911 17.98004,-5.10924 27.13759,-5.10924c5.55595,0 19.25037,0.54443 26.4396,5.62575c10.5535,7.4405 13.2198,27.05383 13.33148,27.89141c0.01396,0.1396 0.02792,0.27919 0.02792,0.43275c0,5.1232 -3.05717,8.18036 -8.18036,8.18036h-65.59646z" fill="#ffffff"/><path d="M242.04574,169.55119c-10.35807,0 -20.74406,1.70308 -25.40658,4.62065c-9.28317,5.79326 -11.57256,19.92044 -13.05229,24.65277c-0.73986,2.40106 -0.55839,6.25393 4.46709,6.25393h65.61042c3.82495,0 4.88588,-2.19167 4.88588,-4.88588c0,0 -2.47086,-18.9293 -11.96343,-25.62994c-4.94172,-3.48992 -14.7414,-5.01152 -24.54109,-5.01152M270.38385,169.16032c11.51673,8.12452 14.40637,27.91933 14.69953,30.15287c0.04188,0.27919 0.05584,0.57235 0.05584,0.85154c0,6.96587 -4.50897,11.47484 -11.47484,11.47484h-65.61042c-5.38843,0 -8.16641,-2.69421 -9.35297,-4.29958c-2.09395,-2.84777 -2.61046,-6.67272 -1.40992,-10.51163c0.18148,-0.55839 0.40483,-1.42388 0.67007,-2.42898c1.78684,-6.82628 5.09528,-19.54353 15.18811,-25.83934c6.6448,-4.13206 19.2783,-5.61178 28.8965,-5.61178v6.58896v-6.58896c7.3009,0 20.67426,0.80966 28.33812,6.21205z" fill="#000000"/><path d="M231.31076,206.50242v-27.75181l19.19454,0.20939v27.54242z" fill="#000000"/><path d="M233.29303,180.74684v23.77331h15.24395v-23.61975l-15.24395,-0.15355M233.33491,176.79625l15.24395,0.16752l3.90871,0.04188v31.47904h-23.14512v-31.73031z" fill="#000000"/><path d="M194.66664,180.46765c6.77044,-20.42299 24.86216,-25.51826 46.24837,-25.51826c20.2136,0 36.21137,5.09528 44.15442,25.53222c7.4405,19.1387 -26.07665,-1.06094 -44.15442,-1.06094c-18.07776,0 -52.69773,20.49279 -46.24837,1.04698z" fill="#ff6c4a"/><path d="M214.14037,158.94185c-1.49369,15.35563 5.96078,24.94592 5.96078,24.94592l-6.04453,1.77288c-9.46465,-9.70197 -5.93286,-23.27076 -5.93286,-23.27076zM243.33003,154.64227c-3.19676,11.02814 1.25637,24.918 1.25637,24.918c-5.50011,-0.96322 -8.04077,0.0698 -8.04077,0.0698c-3.76911,-11.9076 -1.6612,-24.76444 -1.6612,-24.76444c4.07622,-0.5863 8.43164,-0.23732 8.4456,-0.22336zM271.51459,162.40384c-0.82362,10.49766 0.7259,24.6388 0.7259,24.6388l-7.38466,-2.21959c0,0 -3.3224,-11.12585 0,-26.02081c1.91247,0.61423 6.65876,3.58764 6.65876,3.60159z" fill="#ffaf9f"/><path d="M240.91501,154.94938c-21.3862,0 -39.47793,5.09528 -46.24837,25.51826c-2.06603,6.25393 0.09772,8.3758 4.60669,8.3758c9.50653,0 29.37113,-9.43673 41.64167,-9.43673c12.27054,0 31.64656,9.3111 40.51095,9.3111c4.20186,0 6.03057,-2.07999 3.64347,-8.2362c-7.94305,-20.43695 -23.94082,-25.53222 -44.15442,-25.53222M291.21168,178.08054c0.76778,1.96831 3.09905,7.97097 -0.22336,12.81497c-1.36805,2.01019 -4.14602,4.41126 -9.56237,4.41126c-5.06736,0 -11.58652,-2.02415 -19.12474,-4.38333c-7.38466,-2.30334 -15.76046,-4.9138 -21.3862,-4.9138c-5.52803,0 -13.95966,2.58254 -21.3862,4.87192c-7.94305,2.4569 -14.8112,4.56481 -20.25547,4.56481c-5.6397,0 -8.55727,-2.41502 -10.02304,-4.43917c-3.43408,-4.7742 -1.47972,-10.66518 -0.83758,-12.60558c8.93419,-26.92819 34.24306,-30.04119 52.5023,-30.04119c18.03588,0 40.05027,3.37824 50.29667,29.72012z" fill="#000000"/></g></g></svg>